# xmcd
#
# Track frame offsets:
#	150
#	20662
#	38887
#	53350
#	71954
#	84609
#	101060
#	119166
#	138183
#	155277
#	170835
#	185721
#	203676
#	225219
#	242959
#	262146
#	281113
#	303061
#	319525
#	334631
#
# Disc length: 4674 seconds
#
# Revision: 1
# Processed by: cddbd v1.5.2PL0 Copyright (c) Steve Scherf et al.
# Submitted via: VUPlayer 2.47
#
DISCID=20124014
DTITLE=Various Artist - Essential R&B (Winter 2006)
DYEAR=2006
DGENRE=R&B
TTITLE0=Pussycat Dolls feat. Busta Rhymes - Don't Cha
TTITLE1=Black Eyed Pess - Don't Phunk With My Heart
TTITLE2=Akon - Bananza (Belly Dancer)
TTITLE3=Bow Wow feat. Omarion - Let Me Hold You
TTITLE4=Jennifer Lopez - Jenny From The Block
TTITLE5=DMX - Where The Hood At
TTITLE6=G-Unit - Poppin' Them Tangs
TTITLE7=Blackstreet feat. Dr. Dre - No Diggity
TTITLE8=Blu Cantrell feat. Sean Paul - Breathe
TTITLE9=Nelly - 'N Dey Say
TTITLE10=Will Smith - Switch
TTITLE11=2Pac feat. Elton John - Ghetto Gospel
TTITLE12=The Game - Dreams
TTITLE13=Robby Valentino - Slow Down
TTITLE14=Usher - Burn
TTITLE15=Dutkast - Roses
TTITLE16=LL Cool J - Doin'It
TTITLE17=Jay-Z - Wishing On A Star
TTITLE18=Bobby Brown - Two Can Play That Game
TTITLE19=Tony Yayo feat. 50 Cent - So Seductive
EXTD=
EXTT0=
EXTT1=
EXTT2=
EXTT3=
EXTT4=
EXTT5=
EXTT6=
EXTT7=
EXTT8=
EXTT9=
EXTT10=
EXTT11=
EXTT12=
EXTT13=
EXTT14=
EXTT15=
EXTT16=
EXTT17=
EXTT18=
EXTT19=
PLAYORDER=
